<svg xmlns="http://www.w3.org/2000/svg" enable-background="new 0 0 60 60" viewBox="0 0 60 60"><path d="M50.1,17.3H34.4v-6.6c0-0.6-0.4-1-1-1h-6.9c-0.6,0-1,0.4-1,1v6.6H9.9C7.8,17.3,6,19,6,21.2v25.3c0,2.2,1.8,3.9,3.9,3.9h40.1
	c2.2,0,3.9-1.8,3.9-3.9V21.2C54,19,52.2,17.3,50.1,17.3z M27.6,11.6h4.9v8.9h-4.9V11.6z M52,46.4c0,1.1-0.9,1.9-1.9,1.9H9.9
	c-1.1,0-1.9-0.9-1.9-1.9V21.2c0-1.1,0.9-1.9,1.9-1.9h15.6v1.3h-1.2c-0.6,0-1,0.4-1,1s0.4,1,1,1h2.2h6.9h2.2c0.6,0,1-0.4,1-1
	s-0.4-1-1-1h-1.2v-1.3h15.6c1.1,0,1.9,0.9,1.9,1.9V46.4z"/><path d="M48 25.6H27.9c-.6 0-1 .4-1 1s.4 1 1 1H48c.6 0 1-.4 1-1S48.6 25.6 48 25.6zM48 31.5H27.9c-.6 0-1 .4-1 1s.4 1 1 1H48c.6 0 1-.4 1-1S48.6 31.5 48 31.5zM48 37.5H27.9c-.6 0-1 .4-1 1s.4 1 1 1H48c.6 0 1-.4 1-1S48.6 37.5 48 37.5zM48 43.4H12c-.6 0-1 .4-1 1s.4 1 1 1h36c.6 0 1-.4 1-1S48.6 43.4 48 43.4zM12.5 40.9h11.9c.6 0 1-.4 1-1v-3.2c0-1.9-1.4-3.4-3.2-3.7.7-1 1.1-2.2 1.1-3.3 0-2.6-2.1-4.8-4.8-4.8s-4.8 2.1-4.8 4.8c0 1.1.4 2.3 1.1 3.3-1.8.3-3.2 1.8-3.2 3.7v3.2C11.5 40.5 12 40.9 12.5 40.9zM18.5 27c1.5 0 2.8 1.2 2.8 2.8 0 1.5-1.3 3.5-2.8 3.5s-2.8-2-2.8-3.5C15.7 28.3 17 27 18.5 27zM13.5 36.7c0-1 .8-1.7 1.7-1.7H17c.5.2.9.3 1.4.3.5 0 1-.1 1.4-.3h1.8c1 0 1.7.8 1.7 1.7v2.2h-9.9V36.7z"/></svg>