<svg xmlns="http://www.w3.org/2000/svg" data-name="Layer 1" viewBox="0 0 32 32"><path d="M19.5,22.15h-2a.5.5,0,0,0-.5.5v2a.5.5,0,0,0,.5.5h2a.5.5,0,0,0,.5-.5v-2A.5.5,0,0,0,19.5,22.15Zm-.5,2H18v-1h1ZM17.42,17h2a.5.5,0,0,0,.5-.5v-2a.5.5,0,0,0-.5-.5h-2a.5.5,0,0,0-.5.5v2A.5.5,0,0,0,17.42,17Zm.5-2h1v1h-1Zm1.58,3.14h-2a.5.5,0,0,0-.5.5v2a.5.5,0,0,0,.5.5h2a.5.5,0,0,0,.5-.5v-2A.5.5,0,0,0,19.5,18.15Zm-.5,2H18v-1h1Zm8.5-6h-2a.5.5,0,0,0-.5.5v2a.5.5,0,0,0,.5.5h2a.5.5,0,0,0,.5-.5v-2A.5.5,0,0,0,27.5,14.15Zm-.5,2H26v-1h1Zm.5-4h-2a.5.5,0,0,0-.5.5.5.5,0,0,0,.5.5h2a.5.5,0,0,0,.5-.5A.5.5,0,0,0,27.5,12.15Zm0,6h-2a.5.5,0,0,0-.5.5v2a.5.5,0,0,0,.5.5h2a.5.5,0,0,0,.5-.5v-2A.5.5,0,0,0,27.5,18.15Zm-.5,2H26v-1h1Zm1.5-16H14.85a3.31,3.31,0,0,0-.73-1.77,3.38,3.38,0,0,0-6,1.8A2.5,2.5,0,0,0,6,6.65v5.82l-.41,0a1.47,1.47,0,0,0-.9-.31,1.5,1.5,0,0,0-1.06.42,1.46,1.46,0,0,0-.43.95,1.53,1.53,0,0,0-1,.42A1.44,1.44,0,0,0,1.71,15a1.5,1.5,0,0,0,0,.37,1.49,1.49,0,0,0-.36,2.3,1.47,1.47,0,0,0-.39,1,1.51,1.51,0,0,0,.39,1,1.47,1.47,0,0,0-.39,1,1.51,1.51,0,0,0,.39,1,1.47,1.47,0,0,0-.39,1,1.51,1.51,0,0,0,.39,1,1.47,1.47,0,0,0-.39,1,1.51,1.51,0,0,0,.39,1,1.47,1.47,0,0,0-.39,1A1.51,1.51,0,0,0,1.78,28a1.48,1.48,0,0,0,.37,1.45,1.46,1.46,0,0,0,1.06.44l.29,0a1.49,1.49,0,0,0,1.41,1,1.47,1.47,0,0,0,1-.39,1.5,1.5,0,0,0,2.25-.27,1.44,1.44,0,0,0,.64.16,1.49,1.49,0,0,0,1.43-1.05s0,0,0,0a1.63,1.63,0,0,0,.45.07,1.44,1.44,0,0,0,.69-.17,1.47,1.47,0,0,0,.74-.88,1.52,1.52,0,0,0,0-1v-.14H28.5a2.5,2.5,0,0,0,2.5-2.5v-18A2.5,2.5,0,0,0,28.5,4.15Zm-18,11H9.7c0-.34.05-.67.07-1h.73a.5.5,0,0,0,.5-.5.5.5,0,0,0-.5-.5H9.8c0-.34,0-.67,0-1h.68a.5.5,0,0,0,.5-.5.5.5,0,0,0-.5-.5H9.8l0-1h.73a.5.5,0,0,0,.5-.5.5.5,0,0,0-.5-.5H9.7A39.15,39.15,0,0,0,9.15,5a2.39,2.39,0,1,1,4.7,0,39.15,39.15,0,0,0-.55,4.16h-.8a.5.5,0,0,0-.5.5.5.5,0,0,0,.5.5h.73l0,1h-.7a.5.5,0,0,0-.5.5.5.5,0,0,0,.5.5h.68c0,.33,0,.66,0,1h-.7a.5.5,0,0,0-.5.5.5.5,0,0,0,.5.5h.73c0,.33,0,.66.07,1h-.8a.5.5,0,0,0-.5.5.5.5,0,0,0,.5.5h.89c.12,1.05.26,2.1.46,3.15a2.39,2.39,0,0,1-.5,2,2.49,2.49,0,0,1-3.7,0,2.39,2.39,0,0,1-.5-2c.2-1.05.34-2.1.46-3.15h.89a.5.5,0,0,0,.5-.5A.5.5,0,0,0,10.5,15.15ZM7,6.65A1.49,1.49,0,0,1,8.16,5.19a37,37,0,0,1,0,13.92,3.44,3.44,0,0,0,.72,2.81,3.49,3.49,0,0,0,1.12.87v1.86a.5.5,0,0,0,.5.5H11l0,1H8.5A1.5,1.5,0,0,1,7,24.65ZM11.16,28a.49.49,0,0,1-.92.08.51.51,0,0,0-.67-.21l-.08.07h0a.5.5,0,0,0-.21.67.47.47,0,0,1,0,.38.53.53,0,0,1-.25.3.49.49,0,0,1-.67-.22.5.5,0,0,0-.94.25,0,0,0,0,1,0,0,.5.5,0,0,1-.5.5.5.5,0,0,1-.5-.5.5.5,0,0,0-.5-.5.51.51,0,0,0-.5.5.5.5,0,0,1-.5.5.5.5,0,0,1-.5-.5.68.68,0,0,0,0-.14.51.51,0,0,0-.12-.5.5.5,0,0,0-.71,0A.5.5,0,0,1,2.85,28,.42.42,0,0,0,3,27.84a.5.5,0,0,0,0-.38.53.53,0,0,0-.27-.28.58.58,0,0,0-.19,0,.5.5,0,0,1-.5-.5.5.5,0,0,1,.5-.5.5.5,0,0,0,.5-.5.5.5,0,0,0-.5-.5.5.5,0,0,1-.5-.5.5.5,0,0,1,.5-.5.5.5,0,0,0,.5-.5.5.5,0,0,0-.5-.5.5.5,0,0,1-.5-.5.5.5,0,0,1,.5-.5.5.5,0,0,0,.5-.5.5.5,0,0,0-.5-.5.5.5,0,0,1-.5-.5.5.5,0,0,1,.5-.5.5.5,0,0,0,.5-.5.5.5,0,0,0-.5-.5.5.5,0,0,1-.5-.5.5.5,0,0,1,.5-.5.5.5,0,0,0,.5-.5.5.5,0,0,0-.5-.5.5.5,0,0,1-.5-.5.48.48,0,0,1,.36-.47l.13,0a.47.47,0,0,0,.35-.14A.51.51,0,0,0,3,15.7s0,0,0,0a.47.47,0,0,0-.23-.41A.53.53,0,0,1,2.71,15a.45.45,0,0,1,.15-.35.5.5,0,0,1,.71,0l0,0h0a.51.51,0,0,0,.36.15.49.49,0,0,0,.35-.14.51.51,0,0,0,0-.71.48.48,0,0,1,0-.7.5.5,0,0,1,.7,0,.53.53,0,0,0,.34.15l.63,0V24.65a2.5,2.5,0,0,0,2.5,2.5h2.57v.27s0,0,0,.08a.36.36,0,0,0,0,.11h0A.5.5,0,0,1,11.16,28ZM12,24.15H11v-1h1Zm18,.5a1.5,1.5,0,0,1-1.5,1.5H12l0-1h.49a.5.5,0,0,0,.5-.5V22.79a3.49,3.49,0,0,0,1.12-.87,3.44,3.44,0,0,0,.72-2.81,37.08,37.08,0,0,1,0-13.93v0H28.5A1.5,1.5,0,0,1,30,6.65ZM27.5,6.15h-10A1.5,1.5,0,0,0,16,7.65v1a1.5,1.5,0,0,0,1.5,1.5h10A1.5,1.5,0,0,0,29,8.65v-1A1.5,1.5,0,0,0,27.5,6.15Zm.5,2.5a.5.5,0,0,1-.5.5h-10a.5.5,0,0,1-.5-.5v-1a.5.5,0,0,1,.5-.5h10a.5.5,0,0,1,.5.5Zm-.5,13.5h-2a.5.5,0,0,0-.5.5v2a.5.5,0,0,0,.5.5h2a.5.5,0,0,0,.5-.5v-2A.5.5,0,0,0,27.5,22.15Zm-.5,2H26v-1h1Zm-3.5-6h-2a.5.5,0,0,0-.5.5v2a.5.5,0,0,0,.5.5h2a.5.5,0,0,0,.5-.5v-2A.5.5,0,0,0,23.5,18.15Zm-.5,2H22v-1h1Zm.5,2h-2a.5.5,0,0,0-.5.5v2a.5.5,0,0,0,.5.5h2a.5.5,0,0,0,.5-.5v-2A.5.5,0,0,0,23.5,22.15Zm-.5,2H22v-1h1Zm.5-12h-2a.5.5,0,0,0-.5.5.5.5,0,0,0,.5.5h2a.5.5,0,0,0,.5-.5A.5.5,0,0,0,23.5,12.15Zm-4,0h-2a.5.5,0,0,0-.5.5.5.5,0,0,0,.5.5h2a.5.5,0,0,0,.5-.5A.5.5,0,0,0,19.5,12.15Zm4,2h-2a.5.5,0,0,0-.5.5v2a.5.5,0,0,0,.5.5h2a.5.5,0,0,0,.5-.5v-2A.5.5,0,0,0,23.5,14.15Zm-.5,2H22v-1h1Z"/></svg>