<?xml version="1.0" encoding="UTF-8"?><!DOCTYPE svg PUBLIC "-//W3C//DTD SVG 1.1//EN" "http://www.w3.org/Graphics/SVG/1.1/DTD/svg11.dtd"><svg xmlns="http://www.w3.org/2000/svg" xmlns:xlink="http://www.w3.org/1999/xlink" version="1.1" id="Layer_1" x="0px" y="0px" viewBox="0 0 512 512" xml:space="preserve"><path d="M288 112c22.223 0 39.997-17.776 39.997-40 0-22.225-17.774-40-39.997-40s-40.003 17.775-40.003 40c0 22.224 17.78 40 40.003 40z"/><path d="M288 232h104v-40h-72l-44.802-69.333c-7.698-11.667-18.136-18.136-30.933-18.136-3.198 0-8.828.531-12.799 1.747L120 144v112h40v-80l40.531-16L120 480h40l56.698-164.271L267 384v96h38V352l-57.031-96 19.745-61.864L288 232z"/><metadata><rdf:RDF xmlns:rdf="http://www.w3.org/1999/02/22-rdf-syntax-ns#" xmlns:rdfs="http://www.w3.org/2000/01/rdf-schema#" xmlns:dc="http://purl.org/dc/elements/1.1/"><rdf:Description about="https://iconscout.com/legal#licenses" dc:title="android,walk" dc:description="android,walk" dc:publisher="Iconscout" dc:date="2017-09-24" dc:format="image/svg+xml" dc:language="en"><dc:creator><rdf:Bag><rdf:li>Benjamin J Sperry</rdf:li></rdf:Bag></dc:creator></rdf:Description></rdf:RDF></metadata></svg>